:SAMPLES-PER-SECOND 30
:FULLY-SPECIFIED
:DEGREES
473
root  44.1041 37.7692 -2.1737 -111.823 -83.7054 106.352
RightUpLeg  -7.35393 2.18529 -11.2799
RightLeg  65.1029 0.893503 1.51517
RightFoot  -1.28896 -0.970789 10.9095
RightToes  -3.0268e-009 0 -3.6325e-017
Spine  8.26202 2.15994 -4.99647
Spine1  7.86734 2.59653 -5.08288
HEad  -7.6535 -33.8966 8.69914
LeftShoulder1  -0.714141 5.2458 -34.8112
LeftArm  4.61521 6.97489 -38.267
LeftForeArm  22.7327 -29.9642 -5.2494
LeftHand  -0.0120291 7.9949 1.30458
RightShoulder  -1.41468 -6.99906 33.9283
RightArm  22.2521 -3.75398 44.1276
RightForeArm  18.8556 10.059 8.77298
RightHand  -0.0585345 3.43605 -1.01883
LeftUpLeg  -14.8283 4.6944 -8.99831
LeftLeg  23.6229 4.56878 2.53208
LeftFoot  -3.78767 -0.439645 6.99897
LeftToes  2.52475e-009 -1.26109e-010 3.16044e-011
474
root  43.181 37.974 -2.09738 -112.893 -84.1773 107.411
RightUpLeg  -11.4955 2.63349 -10.4092
RightLeg  64.7595 0.582444 0.754893
RightFoot  -1.9677 -0.775873 9.28448
RightToes  -3.0268e-009 0 -3.6325e-017
Spine  8.13958 1.72261 -5.94465
Spine1  7.9237 1.80269 -3.88668
HEad  -7.25211 -33.0466 8.08487
LeftShoulder1  -0.716508 5.26402 -34.5264
LeftArm  2.637 5.31804 -38.2885
LeftForeArm  26.2786 -35.5041 -6.43938
LeftHand  -0.00678917 8.58598 1.38856
RightShoulder  -1.43396 -7.07051 33.6678
RightArm  27.3219 -6.36164 42.3283
RightForeArm  13.3542 14.6276 7.40312
RightHand  -0.0425408 3.98858 -0.783263
LeftUpLeg  -12.8325 4.95898 -8.50836
LeftLeg  22.9521 4.42965 2.31782
LeftFoot  -5.04987 -0.359525 7.08541
LeftToes  2.52475e-009 -1.26109e-010 3.16044e-011
475
root  42.2491 38.1604 -2.00858 -115.588 -84.4643 110.005
RightUpLeg  -14.8103 3.12654 -9.8216
RightLeg  61.7321 0.666395 0.818875
RightFoot  -3.65129 -0.622549 8.86652
RightToes  -3.0268e-009 0 -3.6325e-017
Spine  8.33028 1.32491 -6.45684
Spine1  7.45221 1.25713 -3.38375
HEad  -6.71394 -32.0725 8.18843
LeftShoulder1  -0.710024 5.26571 -34.1254
LeftArm  0.39869 4.17043 -38.2298
LeftForeArm  29.0472 -40.5176 -7.69743
LeftHand  -0.00847318 7.61998 1.5625
RightShoulder  -1.41082 -7.03663 33.4036
RightArm  29.8299 -8.39427 41.0264
RightForeArm  9.89219 17.3864 6.1826
RightHand  -0.151225 4.04562 -2.13617
LeftUpLeg  -10.6285 5.35147 -8.06829
LeftLeg  22.1319 4.22841 1.9766
LeftFoot  -6.37717 -0.27317 7.18356
LeftToes  2.52475e-009 -1.26109e-010 3.16044e-011
476
root  41.3203 38.2837 -1.92507 -118.94 -84.8155 113.172
RightUpLeg  -17.3593 3.565 -9.12361
RightLeg  56.4449 0.893906 1.03842
RightFoot  -4.64353 -0.527601 8.48859
RightToes  -3.0268e-009 0 -3.6325e-017
Spine  8.50998 0.995017 -6.433
Spine1  7.22987 0.919353 -3.15761
HEad  -7.35271 -31.9688 8.72691
LeftShoulder1  -0.690719 5.23079 -33.8283
LeftArm  -0.773899 2.94092 -38.0923
LeftForeArm  30.5564 -45.0988 -9.09341
LeftHand  -0.0153308 6.68177 1.64307
RightShoulder  -1.38877 -7.00205 33.1702
RightArm  29.873 -9.30164 40.2682
RightForeArm  9.38322 18.1568 5.78375
RightHand  -0.169973 3.92503 -2.3845
LeftUpLeg  -8.56654 4.86646 -7.66549
LeftLeg  21.723 4.73782 2.11913
LeftFoot  -7.68356 -0.190171 7.39626
LeftToes  2.52475e-009 -1.26109e-010 3.16044e-011
477
root  40.3897 38.3827 -1.86933 -121.436 -85.0392 115.572
RightUpLeg  -19.0756 3.84299 -8.65505
RightLeg  49.2041 1.2821 1.23678
RightFoot  -5.68936 -0.506541 9.44713
RightToes  -3.0268e-009 0 -3.6325e-017
Spine  8.54469 0.805298 -6.75765
Spine1  7.01239 0.650005 -2.56385
HEad  -6.17061 -28.6869 7.9849
LeftShoulder1  -0.678271 5.21151 -33.5658
LeftArm  -1.9113 1.95246 -38.275
LeftForeArm  30.9889 -48.6559 -10.4219
LeftHand  -0.000874684 7.15904 2.24652
RightShoulder  -1.3461 -6.90459 33.0506
RightArm  28.126 -9.50328 39.7755
RightForeArm  10.284 17.4381 5.94492
RightHand  -0.129598 3.94106 -1.89395
LeftUpLeg  -6.61056 4.63271 -7.41921
LeftLeg  21.3142 5.31336 2.30786
LeftFoot  -8.93292 -0.104249 7.49845
LeftToes  2.52475e-009 -1.26109e-010 3.16044e-011
478
root  39.4701 38.4604 -1.81328 -122.028 -85.1057 116.276
RightUpLeg  -20.3308 3.69978 -8.43952
RightLeg  40.5991 2.26717 1.81
RightFoot  -6.20507 -0.46826 9.46872
RightToes  -3.0268e-009 0 -3.6325e-017
Spine  8.33035 0.720754 -6.98704
Spine1  6.98312 0.564194 -2.03439
HEad  -7.01298 -28.7751 8.11945
LeftShoulder1  -0.612351 5.0566 -33.2057
LeftArm  -3.02851 1.55745 -38.8187
LeftForeArm  31.7511 -51.6053 -11.6477
LeftHand  -0.0195912 6.20327 1.79822
RightShoulder  -1.38199 -6.98981 33.1113
RightArm  24.9433 -9.0267 39.6435
RightForeArm  11.5889 15.7206 6.39641
RightHand  -0.199976 3.33721 -2.8905
LeftUpLeg  -4.74196 4.49621 -7.38462
LeftLeg  20.5002 5.60057 2.2815
LeftFoot  -10.0172 -0.0262919 7.50683
LeftToes  2.52475e-009 -1.26109e-010 3.16044e-011
479
root  38.5279 38.5357 -1.74832 -120.461 -85.1655 115.061
RightUpLeg  -21.0914 3.442 -8.40007
RightLeg  31.0617 3.30682 1.92034
RightFoot  -6.31651 -0.433881 8.89686
RightToes  -3.0268e-009 0 -3.6325e-017
Spine  7.33541 0.507076 -6.33758
Spine1  7.7703 0.698949 -2.5129
HEad  -8.35362 -29.9129 8.85993
LeftShoulder1  -0.506502 4.81606 -32.3271
LeftArm  -3.63535 1.35963 -39.8433
LeftForeArm  32.8455 -53.8149 -12.6563
LeftHand  -0.0140778 6.30204 2.12845
RightShoulder  -1.44792 -7.12945 33.4091
RightArm  20.833 -8.00969 40.1035
RightForeArm  13.5372 13.2636 6.9138
RightHand  -0.240812 4.15165 -3.20813
LeftUpLeg  -2.86746 4.7568 -7.34175
LeftLeg  19.2113 5.35835 1.86484
LeftFoot  -11.0568 0.04743 7.65254
LeftToes  2.52475e-009 -1.26109e-010 3.16044e-011
480
root  37.5834 38.5814 -1.68732 -117.286 -85.114 112.189
RightUpLeg  -21.2214 3.29109 -8.68208
RightLeg  21.129 4.16548 1.61483
RightFoot  -6.40424 -0.465897 9.77206
RightToes  -3.0268e-009 0 -3.6325e-017
Spine  8.03578 0.443295 -6.53176
Spine1  6.29019 0.416046 -1.38394
HEad  -8.21652 -29.1018 7.80146
LeftShoulder1  -0.758825 5.38915 -34.1226
LeftArm  -2.52 1.542 -38.6614
LeftForeArm  33.6788 -55.5814 -13.5386
LeftHand  -0.0128221 6.07381 1.81893
RightShoulder  -1.3549 -6.9288 33.0286
RightArm  17.7043 -8.0275 40.181
RightForeArm  15.0594 11.8171 6.80217
RightHand  -0.215892 4.38577 -2.84047
LeftUpLeg  -1.00194 4.52889 -7.60036
LeftLeg  18.0548 5.48951 1.76814
LeftFoot  -11.9754 0.114244 7.61574
LeftToes  2.52475e-009 -1.26109e-010 3.16044e-011
